<svg xmlns="http://www.w3.org/2000/svg" viewBox="0 0 128 114" role="img" aria-label="kordev">
  <g fill="none" stroke="#2ef58f">
    <path stroke-width="13" stroke-linejoin="miter" stroke-miterlimit="4" d="M34 6.5H94A14.5 14.5 0 0 1 108.5 21V38C108.5 48 114 49 120 57C114 65 108.5 66 108.5 76V93A14.5 14.5 0 0 1 94 107.5H34A14.5 14.5 0 0 1 19.5 93V76C19.5 66 14 65 8 57C14 49 19.5 48 19.5 38V21A14.5 14.5 0 0 1 34 6.5Z"/>
    <path stroke-width="15" stroke-linejoin="round" stroke-linecap="butt" d="M68 21.5C80 29 80 47 51 56.5C80 66 80 84 69 92.5"/>
  </g>
</svg>
